<svg width="490" height="75" viewBox="0 0 490 75" fill="none" xmlns="http://www.w3.org/2000/svg">
<path d="M0 73.2733V0.761719H8.46035L37.7332 62.1921L68.1058 0.761719H76.5661V73.1989H68.1058V21.1393L55.4153 47.2435C51.3543 56.0193 46.9549 64.6463 43.1478 73.1989H35.195L9.814 21.1393V73.1989L0 73.2733Z" fill="white"/>
<path d="M90.7798 73.2733V0.761719H133.081V8.1988H98.3941V32.2949H126.059V38.914H98.7325V65.8362H132.574V72.8271L90.7798 73.2733Z" fill="white"/>
<path d="M141.373 0.761719H199.072V8.19881H174.537V73.422H166.077V8.19881H141.542L141.373 0.761719Z" fill="white"/>
<path d="M209.732 73.2733V0.761719H252.034V8.1988H218.193V32.2949H246.027V38.914H218.362V65.8362H252.203V72.8271L209.732 73.2733Z" fill="white"/>
<path d="M301.611 0.0179157C307.399 0.0564954 313.131 1.01388 318.532 2.84399C323.815 4.69843 328.663 7.39642 332.83 10.8017C336.714 14.2695 339.942 18.2617 342.39 22.6267C344.622 27.1968 345.773 32.1183 345.773 37.0918C345.773 42.0653 344.622 46.9868 342.39 51.5569C339.994 55.9711 336.761 59.9949 332.83 63.4563C328.61 66.8198 323.777 69.5351 318.532 71.4883C307.414 75.2043 295.131 75.2043 284.014 71.4883C278.848 69.5308 274.098 66.8146 269.969 63.4563C265.895 60.1027 262.642 56.0537 260.409 51.5569C257.949 47.0579 256.704 42.1203 256.771 37.129C256.681 31.9922 257.925 26.905 260.409 22.2548C262.682 17.7996 265.93 13.7815 269.969 10.4298C274.043 7.0286 278.807 4.32937 284.014 2.47217C289.654 0.696949 295.622 -0.13545 301.611 0.0179157ZM301.611 66.9517C306.367 66.9466 311.077 66.1387 315.486 64.5718C319.719 63.007 323.634 60.8468 327.077 58.1759C330.221 55.3682 332.821 52.1275 334.776 48.5821C336.561 44.9285 337.482 40.9938 337.482 37.0174C337.482 33.0411 336.561 29.1063 334.776 25.4527C332.821 21.9073 330.221 18.6666 327.077 15.8589C323.619 13.1468 319.71 10.9147 315.486 9.23989C306.577 6.11881 296.645 6.11881 287.736 9.23989C283.576 10.8939 279.747 13.1291 276.399 15.8589C273.184 18.614 270.574 21.8662 268.7 25.4527C266.666 29.0279 265.65 32.9837 265.739 36.9802C265.733 40.9929 266.745 44.9563 268.7 48.5821C270.574 52.1686 273.184 55.4208 276.399 58.1759C283.219 63.844 292.226 67.0325 301.611 67.1004V66.9517Z" fill="white"/>
<path d="M365.316 41.7401H380.545C383.2 41.7883 385.833 41.305 388.244 40.327C390.647 39.5881 392.819 38.3656 394.589 36.7572C396.433 35.2537 397.902 33.4305 398.904 31.4025C400.07 29.3464 400.678 27.0809 400.681 24.7835C400.64 22.4654 400.124 20.1727 399.158 18.0158C398.094 16.0631 396.631 14.2986 394.843 12.8098C392.937 11.3934 390.798 10.2398 388.498 9.38877C385.979 8.46772 383.272 8.01204 380.545 8.05009H356.856V0.761719H380.714C388.163 0.89301 395.309 3.37425 400.85 7.7526C403.503 9.80384 405.612 12.3428 407.026 15.1897C408.55 18.1309 409.33 21.3282 409.31 24.5604C409.32 27.0763 408.922 29.5807 408.126 31.9975C407.17 34.2114 405.95 36.3304 404.488 38.319C402.865 40.2647 400.959 42.0149 398.819 43.525C396.583 45.0112 394.138 46.2362 391.543 47.1691L414.302 73.2733H403.557L380.799 48.9541H365.316V73.2733H356.856V41.7401H365.316Z" fill="white"/>
<path d="M455.927 0.761719L489.768 73.199H480.208L468.702 48.4335H439.852L434.353 60.8534L428.938 73.199H419.632L451.866 0.761719H455.927ZM439.852 48.4335H468.702C467.208 43.8901 465.225 39.4822 462.78 35.2698L459.818 29.3201L457.111 23.073L453.896 16.6771L439.852 48.4335Z" fill="white"/>
</svg>
