{
    "asset": {
        "copyright": "2019 (c) Adobe Inc.",
        "generator": "Adobe Dimension - 0897bb3786688dd8ac0e16e7ca439aa83b5dca11",
        "version": "2.0"
    },
    "accessors": [
        {
            "bufferView": 0,
            "componentType": 5126,
            "count": 320,
            "type": "VEC3",
            "max": [
                1.2345997095108033,
                1.11737060546875,
                3.0053956508636476
            ],
            "min": [
                -1.219509482383728,
                -1.1795306205749512,
                -0.041490424424409869
            ]
        },
        {
            "bufferView": 1,
            "componentType": 5126,
            "count": 320,
            "type": "VEC3"
        },
        {
            "bufferView": 2,
            "componentType": 5126,
            "count": 320,
            "type": "VEC2"
        },
        {
            "bufferView": 3,
            "componentType": 5125,
            "count": 1704,
            "type": "SCALAR",
            "max": [
                319.0
            ],
            "min": [
                0.0
            ]
        }
    ],
    "bufferViews": [
        {
            "buffer": 0,
            "byteOffset": 0,
            "byteLength": 3840,
            "target": 34962
        },
        {
            "buffer": 0,
            "byteOffset": 3840,
            "byteLength": 3840,
            "target": 34962
        },
        {
            "buffer": 0,
            "byteOffset": 7680,
            "byteLength": 2560,
            "target": 34962
        },
        {
            "buffer": 0,
            "byteOffset": 10240,
            "byteLength": 6816,
            "target": 34963
        }
    ],
    "buffers": [
        {
            "byteLength": 17056,
            "uri": "meteor2_binary.bin"
        }
    ],
    "cameras": [
        {
            "perspective": {
                "znear": 0.00017281844338867813,
                "yfov": 0.6024156808853149,
                "zfar": 9.505014419555664,
                "aspectRatio": 1.3333333730697632
            },
            "type": "perspective",
            "name": "render_camera"
        }
    ],
    "images": [
        {
            "name": "texture_meteor",
            "uri": "meteor2_images/texture_meteor.jpg",
            "mimeType": "image/jpeg"
        },
        {
            "name": "NormalMap",
            "uri": "meteor2_images/NormalMap.png",
            "mimeType": "image/png"
        }
    ],
    "materials": [
        {
            "pbrMetallicRoughness": {
                "baseColorTexture": {
                    "index": 0
                },
                "metallicFactor": 0.0
            },
            "normalTexture": {
                "index": 1
            },
            "name": "Rock_MAT"
        }
    ],
    "meshes": [
        {
            "name": "RockLP_Rock_MAT_0",
            "primitives": [
                {
                    "attributes": {
                        "POSITION": 0,
                        "NORMAL": 1,
                        "TEXCOORD_0": 2
                    },
                    "indices": 3,
                    "material": 0
                }
            ]
        }
    ],
    "nodes": [
        {
            "translation": [
                7.396663665771484,
                2.913397789001465,
                7.39666223526001
            ],
            "rotation": [
                -0.12059047073125839,
                0.379409521818161,
                0.04995020851492882,
                0.9159756302833557
            ],
            "scale": [
                1.0,
                1.0,
                0.9999999403953552
            ],
            "camera": 0,
            "name": "render_camera_n3d"
        },
        {
            "children": [
                2
            ],
            "translation": [
                -0.013835448771715165,
                -199.6991729736328,
                132.2505645751953
            ],
            "name": "scene"
        },
        {
            "children": [
                3
            ],
            "rotation": [
                -0.7071067690849304,
                0.0,
                0.0,
                0.7071068286895752
            ],
            "scale": [
                1.0,
                0.9999999403953552,
                0.9999999403953552
            ],
            "name": "RootNode (gltf orientation matrix)"
        },
        {
            "children": [
                4
            ],
            "translation": [
                0.0,
                134.5618133544922,
                203.13450622558595
            ],
            "rotation": [
                0.8219148516654968,
                0.0,
                0.0,
                0.5696104168891907
            ],
            "scale": [
                0.018337057903409005,
                0.018337057903409005,
                0.018337057903409005
            ],
            "name": "RootNode (model correction matrix)"
        },
        {
            "children": [
                5
            ],
            "rotation": [
                0.7071067690849304,
                0.0,
                0.0,
                0.7071067690849304
            ],
            "name": "ab485fcfe6c64010b9f3a07cc3e20fe3.fbx"
        },
        {
            "children": [
                6
            ],
            "name": "RootNode"
        },
        {
            "children": [
                7
            ],
            "rotation": [
                -0.7071068286895752,
                0.0,
                0.0,
                0.7071067094802856
            ],
            "scale": [
                100.0,
                100.0,
                100.0
            ],
            "name": "RockLP"
        },
        {
            "mesh": 0,
            "name": "RockLP_Rock_MAT_0"
        }
    ],
    "samplers": [
        {},
        {}
    ],
    "scenes": [
        {
            "nodes": [
                0,
                1
            ],
            "name": "scene"
        }
    ],
    "textures": [
        {
            "name": "tmp_image_pie_7fda_547f_0151base_color",
            "sampler": 0,
            "source": 0
        },
        {
            "name": "tmp_image_pie_22d1_e43c_55f0",
            "sampler": 1,
            "source": 1
        }
    ],
    "scene": 0
}