{
  "accessors": [
    {
      "bufferView": 2,
      "componentType": 5126,
      "count": 320,
      "max": [
        1.2345997095108032,
        1.11737060546875,
        3.0053958892822266
      ],
      "min": [
        -1.219509482383728,
        -1.1795306205749512,
        -0.041490424424409866
      ],
      "type": "VEC3"
    },
    {
      "bufferView": 2,
      "byteOffset": 3840,
      "componentType": 5126,
      "count": 320,
      "max": [
        0.99607294797897339,
        0.99811774492263794,
        0.99358582496643066
      ],
      "min": [
        -0.99257206916809082,
        -0.99765050411224365,
        -0.99633848667144775
      ],
      "type": "VEC3"
    },
    {
      "bufferView": 3,
      "componentType": 5126,
      "count": 320,
      "max": [
        0.97188055515289307,
        0.99984586238861084,
        0.34970954060554504,
        1
      ],
      "min": [
        -0.53089481592178345,
        -0.96420514583587646,
        -0.99977421760559082,
        1
      ],
      "type": "VEC4"
    },
    {
      "bufferView": 1,
      "componentType": 5126,
      "count": 320,
      "max": [
        0.98913693428039551,
        0.99014198780059814
      ],
      "min": [
        0.019784534350037575,
        0.0053155766800045967
      ],
      "type": "VEC2"
    },
    {
      "bufferView": 1,
      "byteOffset": 2560,
      "componentType": 5126,
      "count": 320,
      "max": [
        0.98913693428039551,
        0.99014198780059814
      ],
      "min": [
        0.019784534350037575,
        0.0053155766800045967
      ],
      "type": "VEC2"
    },
    {
      "bufferView": 1,
      "byteOffset": 5120,
      "componentType": 5126,
      "count": 320,
      "max": [
        0.98913693428039551,
        0.99014198780059814
      ],
      "min": [
        0.019784534350037575,
        0.0053155766800045967
      ],
      "type": "VEC2"
    },
    {
      "bufferView": 0,
      "componentType": 5125,
      "count": 1704,
      "max": [
        319
      ],
      "min": [
        0
      ],
      "type": "SCALAR"
    }
  ],
  "asset": {
    "extras": {
      "author": "Agustín Hönnun (https://sketchfab.com/Agustin_Honnun)",
      "license": "CC-BY-4.0 (http://creativecommons.org/licenses/by/4.0/)",
      "source": "https://sketchfab.com/3d-models/space-rock-free-game-asset-agustin-honnun-c9ce5678bdbc443eab59b817a5534ead",
      "title": "Space Rock | Free Game Asset | Agustin Honnun"
    },
    "generator": "Sketchfab-8.75.0",
    "version": "2.0"
  },
  "bufferViews": [
    {
      "buffer": 0,
      "byteLength": 6816,
      "byteOffset": 0,
      "name": "floatBufferViews",
      "target": 34963
    },
    {
      "buffer": 0,
      "byteLength": 7680,
      "byteOffset": 6816,
      "byteStride": 8,
      "name": "floatBufferViews",
      "target": 34962
    },
    {
      "buffer": 0,
      "byteLength": 7680,
      "byteOffset": 14496,
      "byteStride": 12,
      "name": "floatBufferViews",
      "target": 34962
    },
    {
      "buffer": 0,
      "byteLength": 5120,
      "byteOffset": 22176,
      "byteStride": 16,
      "name": "floatBufferViews",
      "target": 34962
    }
  ],
  "buffers": [
    {
      "byteLength": 27296,
      "uri": "scene.bin"
    }
  ],
  "images": [
    {
      "uri": "textures/texture_meteor.jpg"
    },
    {
      "uri": "textures/SpecularMap.png"
    },
    {
      "uri": "textures/NormalMap.png"
    }
  ],
  "materials": [
    {
      "doubleSided": true,
      "name": "Rock_MAT",
      "normalTexture": {
        "index": 2,
        "scale": 1,
        "texCoord": 0
      },
      "pbrMetallicRoughness": {
        "baseColorFactor": [
          1,
          1,
          1,
          1
        ],
        "baseColorTexture": {
          "index": 0,
          "texCoord": 0
        },
        "metallicFactor": 0,
        "metallicRoughnessTexture": {
          "index": 1,
          "texCoord": 0
        },
        "roughnessFactor": 1
      }
    }
  ],
  "meshes": [
    {
      "name": "RockLP_Rock_MAT_0",
      "primitives": [
        {
          "attributes": {
            "NORMAL": 1,
            "POSITION": 0,
            "TANGENT": 2,
            "TEXCOORD_0": 3,
            "TEXCOORD_1": 4,
            "TEXCOORD_2": 5
          },
          "indices": 6,
          "material": 0,
          "mode": 4
        }
      ]
    }
  ],
  "nodes": [
    {
      "children": [
        1
      ],
      "name": "RootNode (gltf orientation matrix)",
      "rotation": [
        -0.70710678118654746,
        -0,
        -0,
        0.70710678118654757
      ]
    },
    {
      "children": [
        2
      ],
      "matrix": [
        0.018337057903409004,
        0,
        0,
        0,
        0,
        -0.0064379202080789288,
        0.017169766232811856,
        0,
        0,
        -0.017169766232811856,
        -0.0064379202080789288,
        0,
        0,
        134.56181335449219,
        203.13450622558594,
        1
      ],
      "name": "RootNode (model correction matrix)"
    },
    {
      "children": [
        3
      ],
      "matrix": [
        1,
        0,
        0,
        0,
        0,
        0,
        1,
        0,
        0,
        -1,
        0,
        0,
        0,
        0,
        0,
        1
      ],
      "name": "ab485fcfe6c64010b9f3a07cc3e20fe3.fbx"
    },
    {
      "children": [
        4
      ],
      "name": "RootNode"
    },
    {
      "children": [
        5
      ],
      "matrix": [
        100,
        0,
        0,
        0,
        0,
        -1.6292067939183141e-05,
        -99.999999999998678,
        0,
        0,
        99.999999999998678,
        -1.6292067939183141e-05,
        0,
        0,
        0,
        0,
        1
      ],
      "name": "RockLP"
    },
    {
      "mesh": 0,
      "name": "RockLP_Rock_MAT_0"
    }
  ],
  "samplers": [
    {
      "magFilter": 9729,
      "minFilter": 9987,
      "wrapS": 10497,
      "wrapT": 10497
    }
  ],
  "scene": 0,
  "scenes": [
    {
      "name": "OSG_Scene",
      "nodes": [
        0
      ]
    }
  ],
  "textures": [
    {
      "sampler": 0,
      "source": 0
    },
    {
      "sampler": 0,
      "source": 1
    },
    {
      "sampler": 0,
      "source": 2
    }
  ]
}

