<svg width="62" height="62" viewBox="0 0 62 62" fill="none" xmlns="http://www.w3.org/2000/svg">
<path d="M31 5.16667C45.2445 5.16667 56.8333 16.7555 56.8333 31C56.8333 45.2445 45.2445 56.8333 31 56.8333C16.7555 56.8333 5.16667 45.2445 5.16667 31C5.16667 16.7555 16.7555 5.16667 31 5.16667ZM31 0C13.8802 0 0 13.8802 0 31C0 48.1197 13.8802 62 31 62C48.1197 62 62 48.1197 62 31C62 13.8802 48.1197 0 31 0ZM25.8333 20.6667C25.8333 22.1056 24.6786 23.2707 23.25 23.2707C21.8214 23.2707 20.6667 22.1082 20.6667 20.6667C20.6667 19.2277 21.8214 18.0627 23.25 18.0627C24.6786 18.0627 25.8333 19.2303 25.8333 20.6667ZM25.8333 25.8333H20.6667V41.3333H25.8333V25.8333ZM33.5833 25.8333H28.4167V41.3333H33.5833V33.9424C33.5833 29.4939 38.7552 29.0832 38.7552 33.9424V41.3333H43.9167V32.6559C43.9167 24.1722 35.836 24.4823 33.5833 28.6569V25.8333Z" fill="white"/>
</svg>
