<svg width="56" height="46" viewBox="0 0 56 46" fill="none" xmlns="http://www.w3.org/2000/svg">
<path d="M56 6.14332C52.4774 6.30627 52.5543 6.29297 52.1561 6.32642L54.2423 0.346856C54.2423 0.346856 47.7302 2.75112 46.0793 3.1812C41.7437 -0.729852 35.2991 -0.902657 30.6917 1.93941C26.9186 4.26734 24.8935 8.26501 25.569 12.9376C18.2259 11.9149 12.0389 8.42152 7.15424 2.53243L5.60931 0.670168L4.4549 2.79786C2.99585 5.48641 2.51135 8.56045 3.09027 11.4535C3.32782 12.6404 3.73157 13.7725 4.29083 14.8325L2.96552 14.317L2.80829 16.5395C2.64893 18.7971 3.39789 21.4325 4.81207 23.5885C5.21027 24.1957 5.72296 24.8624 6.3728 25.5202L5.68793 25.4147L6.52362 27.9613C7.62207 31.3072 9.90356 33.8959 12.8644 35.3349C9.90741 36.5943 7.51868 37.3979 3.59229 38.6941L0 39.8793L3.31799 41.7C4.58307 42.3942 9.05334 44.7127 13.4702 45.4082C23.2883 46.9536 34.3425 45.6951 41.7842 38.9685C48.0524 33.3029 50.1091 25.2436 49.6819 16.8568C49.6174 15.5871 49.9639 14.3754 50.6577 13.4453C52.0475 11.583 55.9915 6.15576 56 6.14332ZM48.034 11.4728C46.8817 13.0169 46.3045 14.989 46.4079 17.0249C46.839 25.4846 44.5455 32.0452 39.5908 36.5235C33.8029 41.7553 24.4671 43.8088 13.9782 42.1575C12.0787 41.8586 10.1155 41.1893 8.49066 40.5208C11.7826 39.384 14.3247 38.3708 18.4301 36.4206L24.1612 33.6982L17.8337 33.2917C14.8028 33.097 12.2791 31.6228 10.7277 29.2293C11.5515 29.1813 12.3457 29.0475 13.1365 28.8262L19.1714 27.1393L13.0861 25.6437C10.1292 24.9169 8.44366 23.1412 7.55029 21.7794C6.96368 20.8845 6.58044 19.9677 6.35059 19.1226C6.96069 19.2868 7.67206 19.4039 8.81921 19.5179L14.4516 20.0771L9.98901 16.5832C6.77356 14.0662 5.48499 10.2846 6.42963 6.6493C16.4648 17.0956 28.2474 16.3105 29.4334 16.5867C29.1724 14.0418 29.1655 14.0358 29.0972 13.7935C27.5783 8.4048 30.907 5.66865 32.4083 4.74245C35.5443 2.80815 40.5222 2.51657 43.97 5.70338C44.7147 6.39117 45.7217 6.66174 46.6642 6.42676C47.5102 6.21579 48.2045 5.99239 48.8842 5.74926L47.4692 9.80482L49.2756 9.8061C48.9346 10.2649 48.5258 10.8142 48.034 11.4728Z" fill="white"/>
</svg>
